# xmcd CD database file
#
# Track frame offsets:
#	150
#	38927
#	99882
#	132369
#	165981
#	193685
#	229518
#	260021
#	286177
#
# Disc length: 4065 seconds
#
# Revision: 0
# Processed by: cddbd v1.5.1PL0 Copyright (c) Steve Scherf et al.
# Submitted via: CDex 1.51
#
DISCID=710fdf09
DTITLE=Phil Woods - Voyage - with the Bill Charlap Trio
DYEAR=2001
DGENRE=Jazz
TTITLE0=A Beautiful Friendship
TTITLE1=Hey There
TTITLE2="Philly" Twist
TTITLE3=These Foolish Things
TTITLE4=A Smitty Ditty
TTITLE5=Trouble Is A Man
TTITLE6=I'll Be Around
TTITLE7=Voyage
TTITLE8=I'll See You Again
EXTD=YEAR: 2001
EXTT0=
EXTT1=
EXTT2=
EXTT3=
EXTT4=
EXTT5=
EXTT6=
EXTT7=
EXTT8=
PLAYORDER=
